<svg width="120" height="120" viewBox="0 0 120 120" fill="none" xmlns="http://www.w3.org/2000/svg">
  <path d="M60 10C66.6274 10 72 15.3726 72 22C72 28.6274 66.6274 34 60 34C53.3726 34 48 28.6274 48 22C48 15.3726 53.3726 10 60 10Z" fill="#F47C6D"/>
  <path d="M110 60C110 66.6274 104.627 72 98 72C91.3726 72 86 66.6274 86 60C86 53.3726 91.3726 48 98 48C104.627 48 110 53.3726 110 60Z" fill="#3EC6DF"/>
  <path d="M60 110C53.3726 110 48 104.627 48 98C48 91.3726 53.3726 86 60 86C66.6274 86 72 91.3726 72 98C72 104.627 66.6274 110 60 110Z" fill="#A3C74A"/>
  <path d="M10 60C10 53.3726 15.3726 48 22 48C28.6274 48 34 53.3726 34 60C34 66.6274 28.6274 72 22 72C15.3726 72 10 66.6274 10 60Z" fill="#F9B44D"/>
  <path d="M34.1421 34.1421C38.6274 29.6569 45.3726 29.6569 49.8579 34.1421C54.3431 38.6274 54.3431 45.3726 49.8579 49.8579C45.3726 54.3431 38.6274 54.3431 34.1421 49.8579C29.6569 45.3726 29.6569 38.6274 34.1421 34.1421Z" fill="#F47C6D"/>
  <path d="M85.8579 34.1421C90.3431 38.6274 90.3431 45.3726 85.8579 49.8579C81.3726 54.3431 74.6274 54.3431 70.1421 49.8579C65.6569 45.3726 65.6569 38.6274 70.1421 34.1421C74.6274 29.6569 81.3726 29.6569 85.8579 34.1421Z" fill="#3EC6DF"/>
  <path d="M85.8579 85.8579C81.3726 90.3431 74.6274 90.3431 70.1421 85.8579C65.6569 81.3726 65.6569 74.6274 70.1421 70.1421C74.6274 65.6569 81.3726 65.6569 85.8579 70.1421C90.3431 74.6274 90.3431 81.3726 85.8579 85.8579Z" fill="#A3C74A"/>
  <path d="M34.1421 85.8579C29.6569 81.3726 29.6569 74.6274 34.1421 70.1421C38.6274 65.6569 45.3726 65.6569 49.8579 70.1421C54.3431 74.6274 54.3431 81.3726 49.8579 85.8579C45.3726 90.3431 38.6274 90.3431 34.1421 85.8579Z" fill="#F9B44D"/>
</svg>